<?xml version="1.0" encoding="UTF-8" standalone="no"?>
<svg xmlns="http://www.w3.org/2000/svg" width="16" height="15" xmlns:xlink="http://www.w3.org/1999/xlink">
  <defs>
    <linearGradient id="a">
      <stop offset="0" stop-opacity="0"/>
      <stop offset=".8" stop-opacity="0"/>
      <stop offset="1" stop-opacity=".15"/>
    </linearGradient>
    <radialGradient id="b" cx="-.5" cy="-1" r="10.5" gradientUnits="userSpaceOnUse" gradientTransform="matrix(0 1.238 -1.7143 0 -1.214 1.318)" xlink:href="#a"/>
  </defs>
  <rect width="15" height="14" x=".5" y=".5" fill="#fff" ry="3" rx="3"/>
  <rect width="15" height="14" x=".5" y=".5" fill="url(#b)" rx="3" ry="3"/>
  <rect width="15" height="14" x=".5" y=".5" fill="none" stroke="#069" rx="3" ry="3"/>
  <path fill="#069" d="M5.024 3.13c.244 0 .45.088.622.263.175.17.263.378.263.622-.004.244-.094.454-.274.63-.17.17-.377.255-.62.255-.24 0-.452-.085-.63-.256-.17-.175-.256-.385-.256-.63 0-.243.086-.45.256-.62.175-.176.385-.264.63-.264zM4.536 12V7.014H3.7v-1.25h2.38V12zM9.09 9.04V12H7.664V3.958c.952-.04 1.51-.06 1.67-.06 1.27 0 2.2.196 2.785.587.584.39.88.997.88 1.825 0 1.844-1.09 2.766-3.27 2.766-.163 0-.38-.013-.65-.04zm0-3.846V7.77c.242.027.433.04.572.04.652 0 1.128-.108 1.428-.325.3-.22.45-.575.45-1.066 0-.84-.672-1.26-2.015-1.26-.15 0-.295.006-.434.024z"/>
</svg>
