<?xml version="1.0" encoding="UTF-8" standalone="no"?>
<svg xmlns="http://www.w3.org/2000/svg" width="7" height="13">
  <path fill="none" stroke="#404040" d="M.5 3.5v6c0 .785.323 1.566.88 2.12.554.557 1.335.88 2.12.88.785 0 1.566-.323 2.12-.88.557-.554.88-1.335.88-2.12v-7c0-.524-.216-1.044-.586-1.414C5.544.716 5.024.5 4.5.5c-.524 0-1.044.215-1.414.586-.37.37-.586.89-.586 1.414v5c0 .262.108.522.293.707.185.185.445.293.707.293.262 0 .522-.108.707-.293.185-.185.293-.445.293-.707v-4" stroke-linecap="round" stroke-linejoin="round"/>
</svg>