<?xml version="1.0" encoding="UTF-8" standalone="no"?>
<svg xmlns="http://www.w3.org/2000/svg" width="19" height="19" xmlns:xlink="http://www.w3.org/1999/xlink">
  <defs>
    <linearGradient id="b">
      <stop offset="0"/>
      <stop offset=".325"/>
      <stop offset=".575" stop-color="#ff4040"/>
      <stop offset="1" stop-color="#ff4040"/>
    </linearGradient>
    <linearGradient id="a">
      <stop offset="0" stop-color="#f5f5f5"/>
      <stop offset=".5" stop-color="#f1f1f1"/>
      <stop offset="1" stop-color="#c3c3c3"/>
    </linearGradient>
    <linearGradient id="c" x1="4.5" x2="14.5" y1="-2.5" y2="20.5" gradientUnits="userSpaceOnUse" xlink:href="#a"/>
    <radialGradient id="d" cx="9.5" cy="9.5" r="19" xlink:href="#b" gradientUnits="userSpaceOnUse"/>
  </defs>
  <circle cx="9.5" cy="9.5" r="9" fill="url(#c)" stroke="#069"/>
  <path fill="#404040" d="M9.5 5C8.125 5 6.75 6.167 6.75 8v1H6.5c-.276 0-.5.224-.5.5v4c0 .276.224.5.5.5h6c.276 0 .5-.224.5-.5v-4c0-.276-.224-.5-.5-.5h-.25V8c0-1.833-1.375-3-2.75-3z"/>
  <path fill="#f7c088" d="M9.5 6C8.125 6 7.75 7 7.75 8v1H7.5c-.276 0-.5.224-.5.5v3c0 .276.224.5.5.5h4c.276 0 .5-.224.5-.5v-3c0-.276-.224-.5-.5-.5h-.25V8c0-1-.375-2-1.75-2zm0 1c.5 0 .75.505.75 1v1h-1.5V8c0-.55.25-1 .75-1z"/>
  <circle cx="3" cy="3" r="2.75" fill="url(#d)" stroke="#404040" stroke-width=".5"/>
</svg>