<?xml version="1.0" encoding="UTF-8" standalone="no"?>
<svg xmlns="http://www.w3.org/2000/svg" width="19" height="19" xmlns:xlink="http://www.w3.org/1999/xlink">
  <defs>
    <linearGradient id="a">
      <stop offset="0" stop-color="#f5f5f5"/>
      <stop offset=".5" stop-color="#f1f1f1"/>
      <stop offset="1" stop-color="#c3c3c3"/>
    </linearGradient>
    <linearGradient id="b" x1="4.5" x2="14.5" y1="-2.5" y2="20.5" gradientUnits="userSpaceOnUse" xlink:href="#a"/>
  </defs>
  <circle cx="9.5" cy="9.5" r="9" fill="url(#b)" stroke="#069"/>
  <path fill="#404040" d="M9.5 5C8.125 5 6.75 6.167 6.75 8v1H6.5c-.276 0-.5.224-.5.5v4c0 .276.224.5.5.5h6c.276 0 .5-.224.5-.5v-4c0-.276-.224-.5-.5-.5h-.25V8c0-1.833-1.375-3-2.75-3zm0 1.5c.625 0 1.25.333 1.25 1.5v1h-2.5V8c0-1.167.625-1.5 1.25-1.5z"/>
</svg>