<?xml version="1.0" encoding="UTF-8" standalone="no"?>
<svg xmlns="http://www.w3.org/2000/svg" width="25" height="25" xmlns:xlink="http://www.w3.org/1999/xlink">
  <defs>
    <linearGradient id="b">
      <stop offset="0"/>
      <stop offset="1" stop-opacity="0"/>
    </linearGradient>
    <linearGradient id="a">
      <stop offset="0" stop-color="#f5f5f5"/>
      <stop offset=".5" stop-color="#f1f1f1"/>
      <stop offset="1" stop-color="#c3c3c3"/>
    </linearGradient>
    <linearGradient id="c" x1="7.5" x2="17.5" y1="1.5" y2="23.5" gradientUnits="userSpaceOnUse" xlink:href="#a"/>
    <linearGradient id="d" x1="16" x2="19" y1="8.5" y2="5.5" xlink:href="#b" gradientUnits="userSpaceOnUse"/>
  </defs>
  <circle cx="12.5" cy="12.5" r="12" fill="url(#c)" stroke="#069"/>
  <g fill="none" stroke="#000" stroke-linejoin="round">
    <path d="M16 8.5h-3m0 3l4 3"/>
    <path stroke="url(#d)" d="M19 5.5l-9 9"/>
    <path d="M10.758 4L8.593 5.25v3.5L10.758 10l2.165-1.25v-3.5zm-2.165 9.75L6.428 15v3.5l2.165 1.25 2.165-1.25V15zm9.094-1.25l-2.166 1.25v3.5l2.168 1.25 2.165-1.25v-3.5z"/>
  </g>
  <path fill="#fff6c1" d="M17.687 15l2.165-1.25-2.165-1.25-2.166 1.25z"/>
  <path fill="#ffec81" d="M15.52 13.75v3.5l2.167 1.25V15z"/>
  <path fill="#ffd800" d="M17.687 18.5l2.165-1.25v-3.5L17.687 15z"/>
  <path fill="#c1c1ff" d="M8.593 16.25L10.758 15l-2.165-1.25L6.428 15z"/>
  <path fill="#8181ff" d="M6.428 15v3.5l2.165 1.25v-3.5z"/>
  <path fill="#00f" d="M8.593 19.75l2.165-1.25V15l-2.165 1.25z"/>
  <path fill="#ffc1c1" d="M10.758 6.5l2.165-1.25L10.758 4 8.593 5.25z"/>
  <path fill="#ff8181" d="M8.593 5.25v3.5L10.758 10V6.5z"/>
  <path fill="red" d="M10.758 10l2.165-1.25v-3.5L10.758 6.5z"/>
</svg>
