<svg xmlns="http://www.w3.org/2000/svg" xmlns:xlink="http://www.w3.org/1999/xlink" height="30" width="25">
  <defs>
    <linearGradient id="a">
      <stop stop-color="#f5f5f5" offset="0"/>
      <stop stop-color="#f1f1f1" offset=".5"/>
      <stop stop-color="#c3c3c3" offset="1"/>
    </linearGradient>
    <linearGradient id="b" x1="7.5" x2="17.5" y1="6.5" y2="28.5" xlink:href="#a" gradientUnits="userSpaceOnUse"/>
  </defs>
  <circle cx="12.5" cy="17.5" r="12" fill="url(#b)" stroke="#069"/>
  <ellipse cx="14.5" cy="18.5" fill="#2d679d" rx="9" ry="5" transform="rotate(5)"/>
  <path fill="none" stroke="#000" d="M11.5 9.5L8 13v8l11-2v-6z" stroke-linejoin="round"/>
  <path fill="#352121" d="M8 13v8l11-2v-6z"/>
  <path fill="#fbcd9f" d="M8 13h11l-7.5-3.5z"/>
  <path stroke="#352121" d="M12.5 11.5V5" stroke-linejoin="round"/>
  <path fill="#ff9730" d="M12.51.832c0 3.327-1.658 2.654-1.254 3.954.755 2.43 2.306 1.284 2.47-.04.18-1.476-.79-2.81-1.216-3.914z"/>
  <path fill="#733c05" d="M8 19.5L19 18v-1L8 18zm11-4l-11 1V15l11-.5z"/>
  <path fill="none" stroke="#000" stroke-width=".5" d="M8 13h11" stroke-linecap="round"/>
</svg>