<svg xmlns="http://www.w3.org/2000/svg" width="16" height="16">
  <circle cx="8" cy="8" r="7.5" fill="#046" stroke="#404040" stroke-linejoin="round"/>
  <path fill="#fff" d="M6.796 9.798q-.066-.17-.105-.377-.03-.21-.03-.4 0-.3.06-.546.06-.246.177-.46.117-.223.293-.418.175-.2.41-.396.247-.21.43-.385.19-.182.32-.358.13-.182.193-.37.066-.197.066-.43 0-.203-.07-.372-.075-.176-.21-.3-.13-.123-.327-.195-.19-.07-.422-.07-.506 0-1.053.212-.547.21-1.035.638V3.61q.5-.3 1.095-.448.593-.15 1.225-.15.605 0 1.126.137.52.13.905.413.39.288.604.737.222.444.222 1.07 0 .396-.09.72-.095.32-.27.607-.177.286-.438.553-.26.26-.598.54-.228.19-.404.35-.17.165-.286.328-.11.156-.17.338-.058.176-.058.404 0 .155.04.32.043.16.115.27zm.95 2.852q-.52 0-.866-.313-.345-.325-.345-.768 0-.46.345-.767t.866-.306q.514 0 .853.306.334.3.334.762 0 .467-.333.773-.337.306-.86.306z"/>
</svg>