<svg xmlns="http://www.w3.org/2000/svg" width="25" height="25" xmlns:xlink="http://www.w3.org/1999/xlink">
  <defs>
    <linearGradient id="a">
      <stop stop-color="#f5f5f5" offset="0"/>
      <stop stop-color="#f1f1f1" offset=".5"/>
      <stop stop-color="#c3c3c3" offset="1"/>
    </linearGradient>
    <linearGradient id="b" x1="7.5" x2="17.5" y1="1.5" y2="23.5" xlink:href="#a" gradientUnits="userSpaceOnUse"/>
  </defs>
  <circle cx="12.5" cy="12.5" r="12" fill="url(#b)" stroke="#069"/>
  <path fill="none" stroke="red" stroke-width=".5" d="M6.484 12L9 11l2 1 2-3 2 1 2.25-2.25" stroke-linejoin="round"/>
  <path fill="red" d="M16.5 7.5l1 1 .25-1.25z"/>
  <path fill="none" stroke="#1879aa" stroke-width=".5" d="M6.38 14L8 15l2-1 1 1 1-2 2 1 2-3h1.25" stroke-linejoin="round"/>
  <path fill="#1879aa" d="M17 10.25v1.5l1-.75z"/>
  <path fill="none" stroke="green" stroke-width=".5" d="M6.5 18.5L8 17h2l2-1 2 1 1-2h1l2-1" stroke-linejoin="round"/>
  <path fill="green" d="M18.05 14.8l-.7-1.35 1.4.05z"/>
  <path fill="none" stroke="#000" d="M6.5 7v11.5H18" stroke-linejoin="round"/>
  <path d="M6.56 6L5 8h3zM17 17v3l2-1.5z"/>
</svg>