<svg xmlns="http://www.w3.org/2000/svg" xmlns:xlink="http://www.w3.org/1999/xlink" width="82" height="25">
  <defs>
    <linearGradient id="a">
      <stop offset="0" stop-opacity="0"/>
      <stop offset=".6" stop-opacity="0"/>
      <stop offset="1" stop-opacity=".15"/>
    </linearGradient>
    <radialGradient id="b" cx="15" cy="-15" r="10.5" gradientTransform="matrix(.0012 -1.75593 6.58828 .00446 132.353 32.426)" gradientUnits="userSpaceOnUse" xlink:href="#a"/>
  </defs>
  <rect width="81" height="24" x=".5" y=".5" fill="#fff" rx="11" ry="11"/>
  <rect width="81" height="24" x=".5" y=".5" fill="url(#b)" rx="11" ry="11"/>
  <rect width="81" height="24" x=".5" y=".5" fill="none" stroke="#069" rx="11" ry="11"/>
  <path fill="#fbfbfb" stroke="#202020" stroke-linejoin="round" d="M11 5L6 15.998 17.5 18.5 18.003 8l-1.5-2.002z"/>
  <path fill="#202020" stroke="#202020" stroke-linejoin="round" d="M16 6.5l1.5 2L16 8z"/>
  <path fill="none" stroke="#202020" stroke-linecap="round" stroke-linejoin="round" d="M11.503 9.501L16 10.5m-.499 2.003l-5-1.002m-.998 2.498l5.5 1.002"/>
  <path fill="#069" d="M23.76 16h1.596v-3.794q.028-.07.126-.238.098-.168.28-.392.182-.238.434-.406.266-.168.56-.168.476 0 .63.294.154.294.154.784V16h1.596v-4.676q0-.868-.644-1.428-.63-.574-1.512-.574-.378 0-.77.154-.378.14-.672.336-.28.182-.448.336-.168.14-.238.21-.028-.042-.112-.154-.07-.112-.21-.266-.126-.168-.266-.308-.126-.154-.224-.224l-1.344.798q.546.42.798.938.266.504.266 1.19zm7.82-2.338h.238q2.52 0 3.625-2.31-.307-.952-.98-1.47-.671-.532-1.693-.532-.63 0-1.177.28-.531.266-.923.756t-.602 1.12q-.21.616-.21 1.274t.21 1.288q.21.616.588 1.106.392.476.924.756.546.28 1.19.28.503 0 .937-.168.435-.168.729-.392t.448-.392q.154-.168.21-.238l-.896-.896q-.112.14-.476.35-.35.196-.952.196-.308 0-.532-.112-.21-.126-.35-.294-.14-.182-.196-.308-.056-.14-.112-.294zm1.19-2.744q.42 0 .671.168.252.154.336.266-.378.574-.882.84-.504.252-1.4.252.014-.098.056-.308.057-.224.183-.504.14-.28.391-.49.267-.224.645-.224zM39.805 9.7l-1.4 3.752-1.358-4.032-1.526.448L37.859 16h1.092l1.358-3.122L41.667 16h1.092l2.338-6.132-1.526-.448-1.358 4.032-1.4-3.752z"/>
  <path fill="#ff8815" d="M49.91 11.156h1.26V9.56h-1.26V7.6h-1.597v1.96h-1.19v1.596h1.19v2.156q0 .924.308 1.61t1.008 1.316l1.344-.798q-.546-.42-.812-.924-.252-.518-.252-1.204zm1.42 1.624q0 .672.224 1.302.224.616.63 1.106.42.476.98.756.56.266 1.218.266.658 0 1.218-.266.56-.28.966-.756.42-.49.644-1.106.224-.63.224-1.302t-.224-1.288q-.224-.63-.644-1.106-.406-.49-.966-.756-.56-.28-1.218-.28-.658 0-1.218.28-.56.266-.98.756-.406.476-.63 1.106-.224.616-.224 1.288zm3.052-1.834q.644 0 1.036.56.392.546.392 1.274t-.392 1.288q-.392.546-1.036.546t-1.036-.546q-.392-.56-.392-1.288t.392-1.274q.392-.56 1.036-.56zm5.241-.714q-.028-.042-.112-.126-.07-.098-.182-.224-.098-.14-.224-.266-.126-.14-.21-.21l-1.344.798q.546.42.798.938.266.504.266 1.19v6.748h1.596v-3.458q.042.042.14.126l.294.182q.196.112.462.196t.546.084q.602 0 1.162-.266.56-.28.98-.756.434-.49.672-1.12.238-.63.238-1.288 0-.672-.224-1.288-.224-.63-.644-1.106-.406-.49-.966-.756-.56-.28-1.218-.28-.434 0-.826.126-.378.126-.63.294-.252.154-.392.28-.14.126-.182.182zm.588 2.548q0-.728.392-1.274.406-.56 1.05-.56t1.036.56q.392.546.392 1.274t-.392 1.288q-.392.546-1.036.546t-1.05-.546q-.392-.56-.392-1.288zm6.174-6.202q-.406 0-.686.28t-.28.686q0 .406.28.686t.686.28q.406 0 .686-.28t.28-.686q0-.406-.28-.686t-.686-.28zm.812 2.982h-1.624V16h1.624zm1.008 3.22q0 .672.21 1.288.224.616.616 1.106.406.476.952.756.56.28 1.204.28.826 0 1.428-.28t1.092-.91l-1.358-.966q-.42.56-1.162.56-.63 0-.994-.546-.364-.56-.364-1.288t.364-1.274q.364-.56.994-.56.742 0 1.162.56l1.358-.966q-.49-.63-1.092-.91-.602-.28-1.428-.28-.644 0-1.204.28-.546.28-.952.77-.392.476-.616 1.092-.21.616-.21 1.288z"/>
</svg>