<svg xmlns="http://www.w3.org/2000/svg" xmlns:xlink="http://www.w3.org/1999/xlink" width="82" height="25">
  <defs>
    <linearGradient id="a">
      <stop offset="0" stop-opacity="0"/>
      <stop offset=".6" stop-opacity="0"/>
      <stop offset="1" stop-opacity=".15"/>
    </linearGradient>
    <radialGradient id="b" cx="15" cy="-15" r="10.5" gradientTransform="matrix(.0012 -1.75593 6.58828 .00446 132.353 32.426)" gradientUnits="userSpaceOnUse" xlink:href="#a"/>
  </defs>
  <rect width="81" height="24" x=".5" y=".5" fill="#fff" rx="11" ry="11"/>
  <rect width="81" height="24" x=".5" y=".5" fill="url(#b)" rx="11" ry="11"/>
  <rect width="81" height="24" x=".5" y=".5" fill="none" stroke="#069" rx="11" ry="11"/>
  <path fill="#fbfbfb" stroke="#202020" stroke-linejoin="round" d="M12.5 6.5l-5 10.998L19 20l.503-10.5-1.5-2.002z"/>
  <path fill="#fbfbfb" stroke="#202020" stroke-linejoin="round" d="M10.5 4l-5 10.998L17 17.5 17.503 7l-1.5-2.002z"/>
  <path fill="#202020" stroke="#202020" stroke-linejoin="round" d="M15.5 5.5l1.5 2-1.5-.5z"/>
  <path fill="none" stroke="#202020" stroke-linecap="round" stroke-linejoin="round" d="M11.003 8.5l4.497 1m-.499 2.003l-5-1.002m-.998 2.498l5.5 1.002"/>
  <path fill="#069" d="M44.081 11.156h1.26V9.56h-1.26V7.6h-1.596v1.96h-1.19v1.596h1.19v2.156q0 .924.308 1.61t1.008 1.316l1.344-.798q-.546-.42-.812-.924-.252-.518-.252-1.204zm-5.49 2.254q.392.168.644.35.266.182.266.42 0 .588-.84.588-.322 0-.728-.21-.392-.224-.602-.518l-.91 1.316q.462.406 1.022.63.56.224 1.148.224.476 0 .91-.168.448-.154.798-.434.35-.294.546-.672.196-.392.196-.826 0-.728-.336-1.134-.322-.42-.924-.686l-.63-.28q-.084-.042-.196-.084-.364-.14-.574-.266-.21-.14-.21-.35 0-.252.21-.364.224-.126.56-.126.308 0 .56.126.252.126.49.364l.91-1.19q-.364-.336-.882-.546-.518-.224-1.148-.224-.42 0-.826.14-.392.14-.714.406-.322.252-.518.616-.182.364-.182.798 0 .714.35 1.134.364.42.98.686zm-8.405-.63q0 .672.224 1.302.224.616.63 1.106.42.476.98.756.56.266 1.218.266.658 0 1.218-.266.56-.28.966-.756.42-.49.644-1.106.224-.63.224-1.302t-.224-1.288q-.224-.63-.644-1.106-.406-.49-.966-.756-.56-.28-1.218-.28-.658 0-1.218.28-.56.266-.98.756-.406.476-.63 1.106-.224.616-.224 1.288zm3.052-1.834q.644 0 1.036.56.392.546.392 1.274t-.392 1.288q-.392.546-1.036.546t-1.036-.546q-.392-.56-.392-1.288t.392-1.274q.392-.56 1.036-.56zm-8.47-.714q-.028-.042-.112-.126-.07-.098-.182-.224-.098-.14-.224-.266-.126-.14-.21-.21l-1.344.798q.546.42.798.938.266.504.266 1.19v6.748h1.596v-3.458q.042.042.14.126l.294.182q.196.112.462.196t.546.084q.602 0 1.162-.266.56-.28.98-.756.434-.49.672-1.12.238-.63.238-1.288 0-.672-.224-1.288-.224-.63-.644-1.106-.406-.49-.966-.756-.56-.28-1.218-.28-.434 0-.826.126-.378.126-.63.294-.252.154-.392.28-.14.126-.182.182zm.588 2.548q0-.728.392-1.274.406-.56 1.05-.56t1.036.56q.392.546.392 1.274t-.392 1.288q-.392.546-1.036.546t-1.05-.546q-.392-.56-.392-1.288z"/>
  <path fill="#ff8815" d="M68.724 18.828l1.4.462 3.99-9.422-1.596-.448-1.638 4.312-1.638-4.312-1.596.448 2.408 5.698zM66.97 6.34h-1.624V16h1.624zm-7.574 3.892q-.028-.042-.112-.126-.07-.098-.182-.224-.098-.14-.224-.266-.126-.14-.21-.21l-1.344.798q.546.42.798.938.266.504.266 1.19v6.748h1.596v-3.458q.042.042.14.126l.294.182q.196.112.462.196t.546.084q.602 0 1.162-.266.56-.28.98-.756.434-.49.672-1.12.238-.63.238-1.288 0-.672-.224-1.288-.224-.63-.644-1.106-.406-.49-.966-.756-.56-.28-1.218-.28-.434 0-.826.126-.378.126-.63.294-.252.154-.392.28-.14.126-.182.182zm.588 2.548q0-.728.392-1.274.406-.56 1.05-.56t1.036.56q.392.546.392 1.274t-.392 1.288q-.392.546-1.036.546t-1.05-.546q-.392-.56-.392-1.288zm-6.503.882h.238q2.52 0 3.626-2.31-.308-.952-.98-1.47-.672-.532-1.694-.532-.63 0-1.176.28-.532.266-.924.756t-.602 1.12q-.21.616-.21 1.274t.21 1.288q.21.616.588 1.106.392.476.924.756.546.28 1.19.28.504 0 .938-.168.434-.168.728-.392t.448-.392q.154-.168.21-.238l-.896-.896q-.112.14-.476.35-.35.196-.952.196-.308 0-.532-.112-.21-.126-.35-.294-.14-.182-.196-.308-.056-.14-.112-.294zm1.19-2.744q.42 0 .672.168.252.154.336.266-.378.574-.882.84-.504.252-1.4.252.014-.098.056-.308.056-.224.182-.504.14-.28.392-.49.266-.224.644-.224zm-2.914.098L51.45 9.35q-.336 0-.686.14-.336.14-.63.336t-.462.336q-.168.14-.238.196-.014-.028-.098-.14-.084-.126-.224-.294-.14-.168-.266-.308-.126-.14-.224-.21l-1.344.798q.546.42.798.938.266.504.266 1.19V16h1.596v-3.794q.056-.07.21-.238.154-.168.406-.392t.574-.392q.322-.168.63-.168z"/>
</svg>