<svg xmlns="http://www.w3.org/2000/svg" xmlns:xlink="http://www.w3.org/1999/xlink" width="82" height="25">
  <defs>
    <linearGradient id="a">
      <stop offset="0" stop-opacity="0"/>
      <stop offset=".6" stop-opacity="0"/>
      <stop offset="1" stop-opacity=".15"/>
    </linearGradient>
    <radialGradient id="b" cx="15" cy="-15" r="10.5" gradientTransform="matrix(.0012 -1.75593 6.58828 .00446 132.353 32.426)" gradientUnits="userSpaceOnUse" xlink:href="#a"/>
  </defs>
  <rect width="81" height="24" x=".5" y=".5" fill="#fff" rx="11" ry="11"/>
  <rect width="81" height="24" x=".5" y=".5" fill="url(#b)" rx="11" ry="11"/>
  <rect width="81" height="24" x=".5" y=".5" fill="none" stroke="#069" rx="11" ry="11"/>
  <path fill="#fbfbfb" stroke="#202020" stroke-linejoin="round" d="M11 5L6 15.998 17.5 18.5 18.003 8l-1.5-2.002z"/>
  <path fill="#202020" stroke="#202020" stroke-linejoin="round" d="M16 6.5l1.5 2L16 8z"/>
  <path fill="none" stroke="#202020" stroke-linecap="round" stroke-linejoin="round" d="M11.503 9.501L16 10.5m-.499 2.003l-5-1.002m-.998 2.498l5.5 1.002"/>
  <path fill="#fff" d="M15.5 15.5v-2l2-2 2 2v2z"/>
  <path fill="#069" d="M17.5 11c-1.375 0-2.75 1.167-2.75 3v1h-.25a.5.5 0 0 0-.5.5v4a.5.5 0 0 0 .5.5h6a.5.5 0 0 0 .5-.5v-4a.5.5 0 0 0-.5-.5h-.25v-1c0-1.833-1.375-3-2.75-3zm0 1.5c.625 0 1.25.333 1.25 1.5v1h-2.5v-1c0-1.167.625-1.5 1.25-1.5z"/>
  <path fill="#ff8815" d="M63.568 15.328l.084.126.196.238q.14.154.252.28.112.112.196.182l1.344-.798q-.546-.42-.812-.924-.252-.518-.252-1.204V6.34H62.98v3.598q-.042-.042-.154-.112-.112-.084-.322-.196-.196-.112-.462-.196-.252-.084-.504-.084-.658 0-1.218.28-.56.266-.98.756-.406.476-.63 1.106-.224.616-.224 1.288t.224 1.302q.224.616.63 1.106.42.476.98.756.56.266 1.218.266.434 0 .812-.126.392-.126.644-.28.252-.168.392-.294.14-.126.182-.182zm-.588-2.548q0 .728-.392 1.288-.392.546-1.05.546-.644 0-1.036-.546-.392-.56-.392-1.288t.392-1.274q.392-.56 1.036-.56.658 0 1.05.56.392.546.392 1.274zm-8.56.882h.237q2.52 0 3.626-2.31-.308-.952-.98-1.47-.672-.532-1.694-.532-.63 0-1.176.28-.532.266-.924.756t-.602 1.12q-.21.616-.21 1.274t.21 1.288q.21.616.588 1.106.392.476.924.756.546.28 1.19.28.504 0 .938-.168.434-.168.728-.392t.448-.392q.154-.168.21-.238l-.896-.896q-.112.14-.476.35-.35.196-.952.196-.308 0-.532-.112-.21-.126-.35-.294-.14-.182-.196-.308-.056-.14-.112-.294zm1.19-2.744q.42 0 .671.168.252.154.336.266-.378.574-.882.84-.504.252-1.4.252.014-.098.056-.308.056-.224.182-.504.14-.28.392-.49.266-.224.644-.224zm-6.85 2.31l2.744 2.982 1.456-.84-2.996-2.786 2.632-2.422-1.428-.812-2.408 2.646V6.34h-1.596V16h1.596zm-7.613-.448q0 .672.21 1.288.224.616.616 1.106.406.476.952.756.56.28 1.204.28.826 0 1.428-.28t1.092-.91l-1.358-.966q-.42.56-1.162.56-.63 0-.994-.546-.364-.56-.364-1.288t.364-1.274q.364-.56.994-.56.742 0 1.162.56l1.358-.966q-.49-.63-1.092-.91-.602-.28-1.428-.28-.644 0-1.204.28-.546.28-.952.77-.392.476-.616 1.092-.21.616-.21 1.288zm-6.446 0q0 .672.224 1.302.224.616.63 1.106.42.476.98.756.56.266 1.218.266.658 0 1.218-.266.56-.28.966-.756.42-.49.644-1.106.224-.63.224-1.302t-.224-1.288q-.224-.63-.644-1.106-.406-.49-.966-.756-.56-.28-1.218-.28-.658 0-1.218.28-.56.266-.98.756-.406.476-.63 1.106-.224.616-.224 1.288zm3.052-1.834q.644 0 1.036.56.392.546.392 1.274t-.392 1.288q-.392.546-1.036.546t-1.036-.546q-.392-.56-.392-1.288t.392-1.274q.392-.56 1.036-.56zM33.83 6.34h-1.624V16h1.624z"/>
</svg>